<?xml version="1.0" encoding="UTF-8"?>
<!DOCTYPE svg PUBLIC "-//W3C//DTD SVG 1.1//EN" "http://www.w3.org/Graphics/SVG/1.1/DTD/svg11.dtd">
<svg xmlns="http://www.w3.org/2000/svg" xml:space="preserve" width="249px" height="128px"
    version="1.1"
    style="shape-rendering:geometricPrecision;text-rendering:geometricPrecision;image-rendering:optimizeQuality;fill-rule:evenodd;clip-rule:evenodd"
    viewBox="0 0 28.24 14.51" xmlns:xlink="http://www.w3.org/1999/xlink"
    xmlns:xodm="http://www.corel.com/coreldraw/odm/2003"><defs><style type="text/css">.fil0,.fil1{fill:#fff}.fil1{fill-rule:nonzero}</style></defs><g id="Capa_x0020_1"><metadata id="CorelCorpID_0Corel-Layer"/><g id="_2535628358928"><path class="fil0" d="M3.46 9.02c0.5,0.01 1.03,0.01 1.33,0.02 0.49,0.02 0.64,-0.03 0.87,-0.45 0.08,-0.15 0.18,-0.31 0.23,-0.41 0.05,-0.14 0,-0.2 -0.32,-0.21l-2.63 0.02c-0.55,0 -0.82,0.01 -1.04,0.4 -0.56,1.03 -1.86,3.52 -1.86,3.52 -0.18,0.43 0.27,0.3 0.93,0.3 0.35,0 0.6,-0.01 0.78,-0.19 0.16,-0.15 0.49,-0.9 0.67,-1.17 0,0 1.06,0 1.41,0 0.32,0 0.41,-0.05 0.58,-0.27 0.1,-0.12 0.33,-0.45 0.36,-0.65 0.02,-0.13 -0.04,-0.15 -0.18,-0.15 -0.36,0 -1.07,0.02 -1.39,0.01 -0.11,-0.01 -0.14,-0.02 -0.11,-0.13 0.04,-0.12 0.17,-0.38 0.37,-0.64zm12.2 -9.02c2.31,0 4.36,0.56 5.69,1.43l-2.62 0c-0.94,-0.3 -2.05,-0.46 -3.24,-0.45 -2.74,0.05 -5.06,1.05 -5.82,2.39l-1.21 0c0.37,-1.89 3.45,-3.37 7.2,-3.37zm7.29 1.74c-1.84,0 -3.24,0 -5.09,0 -1.21,0 -2.57,0.32 -3.37,0.94l-1.4 1 -5.3 0 3.93 0.98 -3.39 2.43 3.49 0 2.74 -2.02 2.8 0 2.04 -1.39 -2.96 0c0.29,-0.21 0.6,-0.4 0.87,-0.63 0.35,-0.32 0.81,-0.25 1.49,-0.25l2.11 0 2.04 -1.06zm-3.08 4.08c0.24,0 0.46,0.08 0.62,0.21 0.69,-0.53 1.09,-1.18 1.09,-1.88 0,-0.4 -0.13,-0.79 -0.38,-1.14l1.2 -0.62c0.33,0.42 0.5,0.88 0.5,1.37 0,1.04 -0.82,1.99 -2.15,2.67 0.02,0.06 0.03,0.13 0.03,0.2 0,0.45 -0.41,0.81 -0.91,0.81 -0.5,0 -0.91,-0.36 -0.91,-0.81 0,-0.45 0.41,-0.81 0.91,-0.81zm-10.47 -1.41c0.02,0.42 0.18,0.81 0.47,1.18l-0.29 0.21c-0.6,-0.48 -0.99,-1.03 -1.12,-1.63l0.94 0.24zm17.11 4.54c0,0 0.88,0 0.88,0 0.17,0.01 0.33,-0.05 0.43,-0.13 0.1,-0.08 0.25,-0.4 0.37,-0.62 0.15,-0.31 -0.02,-0.31 -0.33,-0.31 0,0 -3.83,0 -3.83,0 -0.27,0 -0.34,0.07 -0.39,0.09 -0.2,0.12 -0.34,0.44 -0.45,0.67 -0.03,0.05 -0.05,0.1 -0.05,0.16 -0.01,0.13 0.12,0.16 0.34,0.15 0,0 0.68,0 0.68,0 0.22,-0.01 0.25,0.02 0.17,0.19 0,0 -1.37,2.64 -1.38,2.68 -0.12,0.29 0.08,0.34 0.39,0.33 0,0 1.01,0 1.01,0 0.42,0 0.52,-0.12 0.69,-0.41 0,0 1.36,-2.7 1.36,-2.7 0.04,-0.08 0.04,-0.1 0.11,-0.1zm-10.63 3.2c0.25,0.06 0.93,0.05 1.35,0.04 0.24,-0.01 0.45,-0.28 0.55,-0.48l1.42 -2.74 1.34 0c0.13,-0.01 0.15,0.07 0.11,0.15 -0.17,0.38 -1.44,2.75 -1.44,2.75 -0.12,0.28 0.1,0.29 0.49,0.28 0,0 0.76,-0.01 0.76,-0.01 0.56,-0.01 0.53,-0.13 1.02,-1.04 0.29,-0.54 0.55,-1.08 0.83,-1.63 1.01,-1.45 0.39,-1.58 -0.81,-1.57 -0.88,0.01 -1.74,0.01 -2.62,0.01 -0.88,0 -1.01,0.08 -1.33,0.72 -0.29,0.55 -1.42,2.55 -1.74,3.27 -0.09,0.2 0,0.23 0.07,0.25zm-5.27 -0.31c0.12,0.42 0.52,0.38 0.91,0.37 0.33,0 1.8,0.01 2.45,0.01 0.59,-0.01 0.9,-0.29 0.95,-0.32 0.49,-0.32 1.32,-2.15 1.71,-2.84 0.23,-0.4 0.39,-0.8 0.07,-1.01 -0.12,-0.11 -0.4,-0.08 -0.75,-0.09 0,0 -2.28,0 -2.28,0 -0.6,0.02 -1.17,0.16 -1.5,0.75 -0.2,0.38 -1.26,2.29 -1.5,2.86 -0.05,0.13 -0.07,0.23 -0.06,0.27zm3.4 -2.78l0.55 0c0.11,0 0.16,0.08 0.1,0.18l-0.97 1.71c-0.06,0.1 -0.2,0.19 -0.32,0.19l-0.55 0c-0.11,0 -0.16,-0.08 -0.1,-0.18l0.98 -1.72c0.06,-0.1 0.2,-0.18 0.31,-0.18zm-5.85 -0.14c0.16,-0.02 0.57,-0.03 0.71,0 0.44,0.1 0.23,0.67 -0.37,0.72 -0.07,0 -0.34,0.01 -0.41,0.01 -0.24,-0.01 -0.29,0 -0.27,-0.08 0,0 0.31,-0.6 0.31,-0.6 0.01,-0.02 0.02,-0.04 0.03,-0.05zm-3.37 3.29c0,0 1,-0.01 1.26,-0.01 0.25,-0.01 0.42,-0.19 0.57,-0.45 0.21,-0.36 0.41,-0.82 0.56,-1.04 0.06,-0.08 0.07,-0.12 0.14,-0.13 0.38,-0.03 0.33,0.06 0.33,0.21 0.11,0.6 0.18,1.05 0.24,1.26 0.18,0.25 1.24,0.27 1.67,0.16 0.47,-0.11 -0.16,-1.27 0.02,-1.62 0.25,0.03 0.66,-0.12 0.87,-0.27 0.53,-0.39 0.74,-1.11 0.86,-1.58 0.09,-0.34 -0.05,-0.59 -0.29,-0.7 -0.32,-0.15 -1.66,-0.08 -2.13,-0.08 -2.06,0.01 -2,-0.16 -2.46,0.74 -0.24,0.48 -1.72,3.21 -1.72,3.21 -0.05,0.1 -0.08,0.28 0.08,0.3z"/><path class="fil1" d="M16.36 13.94l-0.05 0.18 -2.03 0 -0.13 0.39 1.97 0c0.06,0 0.12,-0.01 0.19,-0.03 0.06,-0.02 0.12,-0.04 0.17,-0.08 0.06,-0.03 0.1,-0.07 0.14,-0.12 0.05,-0.04 0.08,-0.1 0.09,-0.16l0.07 -0.21c0.02,-0.05 0.02,-0.1 0.01,-0.14 -0.01,-0.04 -0.03,-0.07 -0.06,-0.1 -0.03,-0.04 -0.07,-0.06 -0.11,-0.07 -0.05,-0.02 -0.1,-0.03 -0.15,-0.03l-1.61 0 0.06 -0.17 2.03 0 0.13 -0.39 -1.98 0c-0.06,0 -0.12,0.01 -0.18,0.02 -0.06,0.02 -0.12,0.05 -0.17,0.08 -0.06,0.03 -0.1,0.07 -0.15,0.12 -0.04,0.05 -0.07,0.1 -0.09,0.16l-0.07 0.22c-0.01,0.04 -0.01,0.09 0,0.13 0.01,0.04 0.03,0.08 0.06,0.11 0.03,0.03 0.06,0.05 0.11,0.07 0.05,0.02 0.1,0.02 0.15,0.02l1.6 0z"/><path id="_1" class="fil1" d="M17.35 14.51l0.18 -0.57 1.61 0c0.05,0 0.11,0 0.16,-0.02 0.06,-0.02 0.11,-0.04 0.16,-0.07 0.05,-0.03 0.1,-0.07 0.13,-0.11 0.04,-0.04 0.07,-0.09 0.08,-0.13l0.07 -0.22c0.02,-0.06 0.03,-0.11 0.02,-0.16 -0.01,-0.05 -0.03,-0.09 -0.07,-0.12 -0.03,-0.03 -0.07,-0.06 -0.12,-0.08 -0.05,-0.01 -0.11,-0.02 -0.17,-0.02l-1.97 0 -0.13 0.39 2.03 0 -0.05 0.17 -2.03 0 -0.31 0.94 0.41 0z"/><path id="_2" class="fil1" d="M22.53 13.4c0.02,-0.06 0.03,-0.12 0.01,-0.17 -0.01,-0.04 -0.03,-0.09 -0.06,-0.12 -0.04,-0.03 -0.08,-0.06 -0.13,-0.08 -0.05,-0.01 -0.1,-0.02 -0.15,-0.02l-1.51 0c-0.06,0 -0.12,0.01 -0.18,0.02 -0.06,0.02 -0.12,0.05 -0.17,0.08 -0.06,0.03 -0.11,0.08 -0.15,0.12 -0.04,0.05 -0.07,0.11 -0.09,0.17l-0.24 0.72c-0.02,0.06 -0.02,0.12 -0.01,0.16 0.01,0.05 0.03,0.09 0.06,0.12 0.03,0.04 0.07,0.06 0.12,0.08 0.05,0.02 0.11,0.03 0.17,0.03l1.51 0c0.06,0 0.12,-0.01 0.18,-0.03 0.06,-0.02 0.12,-0.04 0.18,-0.08 0.05,-0.03 0.1,-0.07 0.14,-0.12 0.04,-0.04 0.07,-0.1 0.09,-0.16l0.23 -0.72zm-0.66 0c0.1,0 0.16,0.02 0.18,0.06 0.03,0.04 0.03,0.09 0,0.17l-0.08 0.25c-0.03,0.08 -0.06,0.14 -0.11,0.18 -0.05,0.03 -0.12,0.05 -0.21,0.05l-1.13 0c-0.09,0 -0.15,-0.02 -0.17,-0.05 -0.03,-0.04 -0.03,-0.1 0,-0.18l0.08 -0.25c0.02,-0.08 0.06,-0.13 0.11,-0.17 0.05,-0.04 0.12,-0.06 0.22,-0.06l1.11 0z"/><path id="_3" class="fil1" d="M22.94 14.51l0.18 -0.57 1.11 0 0.28 0.57 0.45 0 -0.26 -0.57 0.02 0c0.06,0 0.11,0 0.17,-0.02 0.06,-0.02 0.11,-0.04 0.16,-0.07 0.05,-0.03 0.09,-0.07 0.13,-0.11 0.04,-0.04 0.06,-0.09 0.08,-0.13l0.07 -0.22c0.02,-0.06 0.02,-0.11 0.01,-0.16 -0.01,-0.05 -0.03,-0.09 -0.06,-0.12 -0.04,-0.03 -0.08,-0.06 -0.13,-0.08 -0.05,-0.01 -0.1,-0.02 -0.16,-0.02l-1.97 0 -0.13 0.39 2.03 0 -0.06 0.17 -2.03 0 -0.3 0.94 0.41 0z"/><polygon id="_4" class="fil1" points="26.75,14.51 27.1,13.4 28.12,13.4 28.24,13.01 25.81,13.01 25.68,13.4 26.7,13.4 26.34,14.51 "/>
    </g>
</g>
</svg>